<svg xmlns="http://www.w3.org/2000/svg" version="1.1" xmlns:xlink="http://www.w3.org/1999/xlink" x="0" y="0" viewBox="0 0 511.968 511.968" style="enable-background:new 0 0 512 512" xml:space="preserve"><g><path d="m406.455 96.494 43.997-77.996-24.499 6.172-27.326 23.999-49.997 31.998-36.669 49.996-35.998 18.062h-37.327L61.319 117.336l74.652 43.998 109.337 27.998 31.998 23.076 5.328 38.248 66.667 155.662-13.342-138.335-20.998-53.997 6.999-48.997z" style="" fill="#ec5564" data-original="#ec5564"></path><path d="M317.897 179.317c0 17.499-14.187 31.67-31.67 31.67-17.499 0-31.686-14.171-31.686-31.67s14.187-31.686 31.686-31.686c17.484 0 31.67 14.187 31.67 31.686zM311.461 351.478l-34.498-111.493-22.421 259.483h63.355z" style="" fill="#fecd57" data-original="#fecd57"></path><path d="M464.888 2.593C463.138.843 460.575 0 457.31 0c-20.107 0-66.855 31.764-113.758 78.667-20.468 20.467-38.061 40.904-51.373 59.106a46.285 46.285 0 0 0-4.874-.281c-8.937 0-17.89 2.796-25.404 8.39-20.64-9.109-46.076-18.015-74.027-25.499-41.029-11-78.902-16.64-105.4-16.64-21.624 0-35.67 3.75-37.717 11.421-4.593 17.062 52.091 47.075 126.555 67.027 27.951 7.5 54.434 12.499 76.854 14.937a42.691 42.691 0 0 0 8.984 13.202 42.824 42.824 0 0 0 5.594 4.703l-18.093 296.935h85.338l-7.608-118.289c10.327 18.389 20.233 29.295 27.936 29.295.672 0 1.344-.078 1.984-.25 17.077-4.578 14.733-68.652-5.218-143.133-7.484-27.951-16.406-53.387-25.499-74.026 6.608-8.89 9.312-19.764 8.093-30.279 18.219-13.327 38.654-30.904 59.121-51.372 54.514-54.513 88.589-108.837 76.09-121.321zM287.305 201.487a21.192 21.192 0 0 1-15.077-6.25c-8.327-8.312-8.327-21.842 0-30.17a21.194 21.194 0 0 1 15.077-6.25 21.203 21.203 0 0 1 15.093 6.25c8.313 8.328 8.313 21.858 0 30.17a21.2 21.2 0 0 1-15.093 6.25zM98.536 133.819c-6.875-3.25-12.375-6.171-16.812-8.75h.75c25.717 0 62.121 5.796 99.869 15.921 23.733 6.359 46.575 14.093 65.809 22.217-1.656 3.875-2.75 7.937-3.219 12.078-20.545-2.563-44.06-7.25-68.105-13.687-29.076-7.795-56.887-17.67-78.292-27.779zm208.706 356.822h-39.903l13.03-214.034a609.335 609.335 0 0 0 4.905 19.547 577.623 577.623 0 0 0 11.999 39.325l9.969 155.162zm34.342-123.836c.625 7.577.844 13.827.813 18.952-2.563-4.422-5.5-9.953-8.75-16.827-10.124-21.405-19.967-49.2-27.779-78.292-6.344-23.733-11.078-47.388-13.656-68.105 4.125-.484 8.188-1.547 12.047-3.234 8.141 19.249 15.858 42.092 22.232 65.824 7.78 29.076 13.139 58.09 15.093 81.682zm-20.015-212.081a44.739 44.739 0 0 0-4.078-4.734 43.248 43.248 0 0 0-4.749-4.093c12.592-16.655 28.529-34.779 45.887-52.138 21.297-21.295 43.732-40.451 63.199-53.934 6.25-4.328 11.547-7.64 16-10.171-2.547 4.437-5.875 9.734-10.188 15.983-13.483 19.468-32.639 41.904-53.934 63.199-17.359 17.359-35.482 33.28-52.137 45.888z" fill="#000000" opacity="1" data-original="#000000"></path></g></svg>